<?xml version="1.0" standalone="no"?>
<!DOCTYPE svg PUBLIC "-//W3C//DTD SVG 20010904//EN"
 "http://www.w3.org/TR/2001/REC-SVG-20010904/DTD/svg10.dtd">
<svg version="1.0" xmlns="http://www.w3.org/2000/svg"
 width="286.000000pt" height="266.000000pt" viewBox="0 0 286.000000 266.000000"
 preserveAspectRatio="xMidYMid meet">
<metadata>
Created by potrace 1.10, written by Peter Selinger 2001-2011
</metadata>
<g transform="translate(0.000000,266.000000) scale(0.100000,-0.100000)"
fill="#000000" stroke="none">
<path d="M550 1591 c0 -6 18 -11 40 -13 l40 -3 -40 -60 c-22 -33 -40 -66 -40
-72 0 -9 18 -13 55 -13 30 0 55 5 55 10 0 6 -20 10 -44 10 l-44 0 44 66 c24
36 44 70 44 75 0 5 -25 9 -55 9 -30 0 -55 -4 -55 -9z"/>
<path d="M690 1515 l0 -85 45 0 c25 0 45 5 45 10 0 6 -16 10 -35 10 -32 0 -35
2 -35 30 0 27 3 30 30 30 17 0 30 5 30 10 0 6 -13 10 -30 10 -25 0 -30 4 -30
25 0 22 4 25 35 25 19 0 35 5 35 10 0 6 -20 10 -45 10 l-45 0 0 -85z"/>
<path d="M820 1515 c0 -50 4 -85 10 -85 6 0 10 16 10 35 0 28 4 35 20 35 13 0
25 -12 34 -35 17 -39 42 -49 30 -12 -3 12 -13 29 -20 38 -13 14 -12 18 1 29
18 15 20 51 3 68 -7 7 -29 12 -50 12 l-38 0 0 -85z m76 50 c8 -20 -13 -45 -37
-45 -14 0 -19 7 -19 30 0 25 4 30 25 30 14 0 28 -7 31 -15z"/>
<path d="M975 1575 c-51 -51 -18 -145 51 -145 49 0 74 29 74 85 0 80 -72 114
-125 60z m89 -11 c21 -20 20 -73 -1 -96 -19 -22 -56 -24 -73 -3 -16 20 -17 80
-1 99 17 20 55 21 75 0z"/>
<path d="M1140 1516 l0 -86 39 0 c60 0 94 48 56 80 -11 9 -12 16 -2 31 19 30
-2 53 -52 57 l-41 3 0 -85z m75 39 c0 -14 -8 -21 -27 -23 -24 -3 -28 0 -28 23
0 23 4 26 28 23 19 -2 27 -9 27 -23z m4 -59 c18 -22 2 -46 -30 -46 -26 0 -29
4 -29 30 0 25 4 30 24 30 13 0 29 -6 35 -14z"/>
<path d="M1299 1581 c-19 -15 -24 -28 -23 -65 1 -58 24 -86 71 -86 56 0 83 44
74 120 -3 24 -40 50 -71 50 -15 0 -38 -9 -51 -19z m91 -20 c15 -29 12 -77 -6
-95 -18 -19 -55 -21 -72 -4 -17 17 -15 84 4 102 21 22 61 20 74 -3z"/>
<path d="M1460 1532 c0 -76 16 -102 61 -102 47 0 61 20 66 98 4 61 2 72 -11
72 -13 0 -16 -13 -16 -70 0 -66 -1 -70 -25 -76 -41 -10 -55 10 -55 82 0 36 -4
64 -10 64 -6 0 -10 -29 -10 -68z"/>
<path d="M1630 1516 c0 -51 4 -86 10 -86 6 0 10 31 10 73 l0 72 40 -72 c55
-99 70 -97 70 12 0 101 -18 115 -22 18 l-3 -68 -35 65 c-19 36 -43 66 -52 68
-16 3 -18 -6 -18 -82z"/>
<path d="M1815 1575 c-48 -47 -18 -145 44 -145 31 0 70 24 58 36 -4 4 -13 2
-19 -4 -17 -17 -53 -15 -69 4 -16 19 -15 79 1 99 15 18 51 20 68 3 9 -9 12 -8
12 4 0 35 -62 37 -95 3z"/>
<path d="M1940 1515 l0 -85 50 0 c28 0 50 5 50 10 0 6 -18 10 -40 10 -39 0
-40 1 -38 30 2 27 6 30 35 30 18 0 33 5 33 10 0 6 -16 10 -35 10 -31 0 -35 3
-35 25 0 23 4 25 40 25 22 0 40 5 40 10 0 6 -22 10 -50 10 l-50 0 0 -85z"/>
<path d="M2055 1500 c-4 -6 8 -10 29 -10 20 0 36 5 36 10 0 6 -13 10 -29 10
-17 0 -33 -4 -36 -10z"/>
<path d="M540 1270 c0 -5 13 -10 28 -10 l29 0 -5 -75 c-4 -65 -2 -75 12 -75
13 0 16 12 16 75 0 73 1 75 25 75 14 0 25 5 25 10 0 6 -28 10 -65 10 -37 0
-65 -4 -65 -10z"/>
<path d="M690 1195 c0 -71 3 -85 16 -85 13 0 15 7 10 35 -6 31 -4 35 14 35 13
0 26 -12 37 -35 9 -19 23 -35 30 -35 10 0 8 10 -7 40 -19 37 -19 42 -5 56 33
33 1 74 -58 74 l-37 0 0 -85z m75 35 c0 -20 -6 -26 -28 -28 -25 -3 -27 -1 -25
28 2 27 6 31 28 28 19 -2 25 -9 25 -28z"/>
<path d="M869 1253 c-27 -69 -49 -137 -45 -141 9 -9 26 10 26 29 0 16 7 19 40
19 34 0 41 -4 46 -25 3 -14 12 -25 20 -25 10 0 6 20 -16 81 -17 44 -30 82 -30
85 0 2 -7 4 -15 4 -9 0 -20 -12 -26 -27z m34 -20 c2 -10 8 -26 12 -35 6 -15 2
-18 -22 -18 -30 0 -30 0 -19 35 12 39 21 44 29 18z"/>
<path d="M990 1195 c0 -69 3 -85 15 -85 12 0 15 16 15 85 0 69 -3 85 -15 85
-12 0 -15 -16 -15 -85z"/>
<path d="M1060 1195 c0 -50 4 -85 10 -85 6 0 10 31 10 73 l1 72 37 -70 c21
-39 45 -71 55 -73 15 -3 17 6 17 82 0 73 -2 86 -16 86 -15 0 -16 -9 -11 -67 7
-74 6 -74 -44 15 -44 78 -59 70 -59 -33z"/>
<path d="M1230 1195 c0 -50 4 -85 10 -85 6 0 10 35 10 85 0 50 -4 85 -10 85
-6 0 -10 -35 -10 -85z"/>
<path d="M1300 1195 c0 -50 4 -85 10 -85 6 0 10 31 10 73 l1 72 37 -70 c21
-39 45 -71 55 -73 15 -3 17 6 17 82 0 72 -3 86 -16 86 -13 0 -15 -9 -9 -65 4
-36 5 -65 2 -65 -3 0 -22 29 -42 65 -51 91 -65 87 -65 -20z"/>
<path d="M1485 1255 c-52 -51 -16 -145 54 -145 50 0 61 9 61 51 0 38 -1 39
-35 39 -19 0 -35 -4 -35 -10 0 -5 11 -10 25 -10 18 0 25 -5 25 -20 0 -44 -70
-37 -89 8 -24 58 31 114 81 83 27 -17 38 -3 14 15 -30 22 -74 17 -101 -11z"/>
<path d="M1658 1266 c-10 -7 -18 -19 -18 -27 0 -10 3 -10 12 -1 22 22 28 12
28 -48 0 -53 -2 -60 -20 -60 -11 0 -20 -4 -20 -10 0 -5 23 -10 50 -10 28 0 50
5 50 10 0 6 -9 10 -20 10 -18 0 -20 7 -20 75 0 78 -7 88 -42 61z"/>
<path d="M1776 1258 c-23 -32 -21 -110 3 -132 27 -24 72 -17 89 14 15 29 10
103 -8 125 -19 23 -66 19 -84 -7z m74 -33 c9 -46 -2 -89 -24 -93 -38 -8 -57
47 -36 103 14 37 52 31 60 -10z"/>
<path d="M1985 1255 c-49 -48 -18 -145 45 -145 28 0 67 27 55 38 -3 3 -11 0
-17 -6 -17 -17 -53 -15 -69 4 -7 9 -13 31 -13 49 0 18 6 40 13 49 16 19 52 21
69 4 9 -9 12 -8 12 4 0 35 -62 37 -95 3z"/>
<path d="M2125 1255 c-51 -51 -18 -145 51 -145 49 0 74 29 74 85 0 80 -72 114
-125 60z m89 -11 c36 -36 8 -114 -40 -114 -45 0 -65 75 -31 118 13 17 52 15
71 -4z"/>
<path d="M2290 1195 c0 -50 4 -85 10 -85 6 0 10 31 11 73 l0 72 28 -70 c16
-38 34 -70 41 -70 7 0 25 32 41 70 l28 70 0 -72 c1 -42 5 -73 11 -73 6 0 10
35 10 86 0 76 -2 85 -17 82 -11 -2 -28 -27 -43 -66 -14 -34 -27 -62 -30 -62
-3 0 -16 29 -29 65 -18 47 -30 65 -43 65 -16 0 -18 -10 -18 -85z"/>
</g>
</svg>
